<svg xmlns="http://www.w3.org/2000/svg" width="64" height="64" viewBox="0 0 48 48">
  <defs>
    <linearGradient id="bg" x1="0" y1="0" x2="48" y2="48" gradientUnits="userSpaceOnUse">
      <stop offset="0%" stop-color="#1d4a40"/>
      <stop offset="55%" stop-color="#143832"/>
      <stop offset="100%" stop-color="#0a201d"/>
    </linearGradient>
    <radialGradient id="sheen" cx="0.28" cy="0.18" r="0.85">
      <stop offset="0%" stop-color="#9be0cf" stop-opacity="0.22"/>
      <stop offset="55%" stop-color="#9be0cf" stop-opacity="0"/>
    </radialGradient>
    <linearGradient id="arcOuter" x1="6" y1="10" x2="42" y2="38" gradientUnits="userSpaceOnUse">
      <stop offset="0%" stop-color="#bff2e1"/>
      <stop offset="100%" stop-color="#3f9d89"/>
    </linearGradient>
    <linearGradient id="arcMid" x1="10" y1="14" x2="38" y2="34" gradientUnits="userSpaceOnUse">
      <stop offset="0%" stop-color="#7fd9c2"/>
      <stop offset="100%" stop-color="#2c8170"/>
    </linearGradient>
    <linearGradient id="arcInner" x1="14" y1="18" x2="34" y2="30" gradientUnits="userSpaceOnUse">
      <stop offset="0%" stop-color="#5cc4ad"/>
      <stop offset="100%" stop-color="#1f6a5c"/>
    </linearGradient>
    <radialGradient id="focal" cx="0.32" cy="0.28" r="0.8">
      <stop offset="0%" stop-color="#eafff5"/>
      <stop offset="55%" stop-color="#a8eedc"/>
      <stop offset="100%" stop-color="#3f9d89"/>
    </radialGradient>
    <radialGradient id="halo" cx="0.5" cy="0.5" r="0.5">
      <stop offset="0%" stop-color="#a8eedc" stop-opacity="0.45"/>
      <stop offset="100%" stop-color="#a8eedc" stop-opacity="0"/>
    </radialGradient>
  </defs>
  <rect x="0" y="0" width="48" height="48" rx="13" fill="url(#bg)"/>
  <rect x="0" y="0" width="48" height="48" rx="13" fill="url(#sheen)"/>
  <circle cx="34" cy="24" r="9" fill="url(#halo)"/>
  <path d="M 34 9.5 A 14.5 14.5 0 1 0 34 38.5" stroke="url(#arcOuter)" stroke-width="2.6" stroke-linecap="round" fill="none" opacity="0.95"/>
  <path d="M 34 13.5 A 10.5 10.5 0 1 0 34 34.5" stroke="url(#arcMid)" stroke-width="2.4" stroke-linecap="round" fill="none" opacity="0.9"/>
  <path d="M 34 17.5 A 6.5 6.5 0 1 0 34 30.5" stroke="url(#arcInner)" stroke-width="2.2" stroke-linecap="round" fill="none" opacity="0.85"/>
  <circle cx="34" cy="24" r="3.4" fill="url(#focal)"/>
  <circle cx="33" cy="22.9" r="0.95" fill="#ffffff" fill-opacity="0.7"/>
</svg>
